<svg id="Ebene_1" data-name="Ebene 1" xmlns="http://www.w3.org/2000/svg" viewBox="0 0 200 62.54838">
  <defs>
    <style>
      .cls-1 {
        fill: #a01441;
      }

      .cls-2, .cls-3 {
        fill: #6f6f6f;
      }

      .cls-3 {
        fill-rule: evenodd;
      }
    </style>
  </defs>
  <title>20200219_Logo</title>
  <g>
    <path class="cls-1" d="M0,37.75269A10.41935,10.41935,0,1,1,10.4301,48.16129h-.02149A10.41934,10.41934,0,0,1,0,37.75269Z"/>
    <path class="cls-2" d="M27.53764,0V47.86021h8.73119V7.27957H56.27958V47.86021h8.75269V7.27957H78.34409C82.828,7.27957,86,9.97849,86,15.88172V47.914h8.74194V13.50537c0-6.51612-3.35483-13.4086-12-13.4086Z"/>
    <path class="cls-2" d="M112.23657,0c-9.43011,0-12.29032,6.26882-12.29032,13.27957,0,7.52688,3.11828,13.80645,11.68817,13.80645h20.78495c6.36559,0,6.36559,4.90323,6.36559,7.129s0,6.34409-6.20431,6.34409h-31.8172v7.30108h35.48387c8.84946,0,11.37635-5.20431,11.37635-13.58065,0-9.98924-3.22581-14.47311-10.8172-14.47311H114.35485c-5.66667,0-5.66667-3.81721-5.66667-6.37635,0-1.98924.55914-6.15054,6.6344-6.15054h30.66667V0Z"/>
    <path class="cls-3" d="M191.30108,40.56989H173.02151c-5.37634,0-10.90322.4086-11.043-6.6129V15.043c.30107-5.88172,2.47312-7.96774,11.43011-7.75269h17.94624V40.62365ZM170.31183,0c-7.78495,0-10.68818,1.24732-12.8172,2.94623-2.33334,1.86022-4.47313,4.21506-4.51613,12.24732V32.46236c0,8.50537,2.36559,10.88172,4.7742,12.90322,1.62365,1.1613,4.30107,2.48387,12.58064,2.48387h20.957v1.84947c0,3.6129-.69892,5.18279-4.83871,5.18279H159.13979v7.66667h30.10752c8.11828,0,10.75269-3.6129,10.75269-10.44086V0Z"/>
  </g>
</svg>
